<?xml version="1.0" encoding="UTF-8" standalone="no"?>
<!-- Created with Inkscape (http://www.inkscape.org/) -->

<svg
   xmlns:dc="http://purl.org/dc/elements/1.1/"
   xmlns:cc="http://creativecommons.org/ns#"
   xmlns:rdf="http://www.w3.org/1999/02/22-rdf-syntax-ns#"
   xmlns:svg="http://www.w3.org/2000/svg"
   xmlns="http://www.w3.org/2000/svg"
   xmlns:xlink="http://www.w3.org/1999/xlink"
   xmlns:sodipodi="http://sodipodi.sourceforge.net/DTD/sodipodi-0.dtd"
   xmlns:inkscape="http://www.inkscape.org/namespaces/inkscape"
   width="51.858334mm"
   height="51.858334mm"
   viewBox="0 0 51.858334 51.858334"
   version="1.1"
   id="geologo"
   class="logo"
   inkscape:version="0.92.3 (2405546, 2018-03-11)"
   sodipodi:docname="logo_tom_final.svg">
  <defs
     id="defs1772">
    <clipPath
       clipPathUnits="userSpaceOnUse"
       id="clipPath7682-5-83-6-2-7-8-3-3-0-6-9-0">
      <path
         style="fill:none;stroke:#000000;stroke-width:0.26458332px;stroke-linecap:butt;stroke-linejoin:miter;stroke-opacity:1"
         d="M 6.4144686,167.64155 200.98668,58.595583 V 137.70736 L 19.243406,226.44084 Z"
         id="path7684-9-3-9-3-8-9-4-5-8-2-7-1"
         inkscape:connector-curvature="0" />
    </clipPath>
    <linearGradient
       inkscape:collect="always"
       id="linearGradient14061">
      <stop
         style="stop-color:#d5f6ff;stop-opacity:1;"
         offset="0"
         id="stop14057" />
      <stop
         style="stop-color:#d5f6ff;stop-opacity:0;"
         offset="1"
         id="stop14059" />
    </linearGradient>
    <clipPath
       clipPathUnits="userSpaceOnUse"
       id="clipPath7682-5-83-6-2-7-8-3-3-0-6-9-0-9">
      <path
         style="fill:none;stroke:#000000;stroke-width:0.26458332px;stroke-linecap:butt;stroke-linejoin:miter;stroke-opacity:1"
         d="M 6.4144686,167.64155 200.98668,58.595583 V 137.70736 L 19.243406,226.44084 Z"
         id="path7684-9-3-9-3-8-9-4-5-8-2-7-1-4"
         inkscape:connector-curvature="0" />
    </clipPath>
    <clipPath
       clipPathUnits="userSpaceOnUse"
       id="clipPath7682-5-83-6-2-7-8-3-3-0-6-9-0-9-4">
      <path
         style="fill:none;stroke:#000000;stroke-width:0.26458332px;stroke-linecap:butt;stroke-linejoin:miter;stroke-opacity:1"
         d="M 6.4144686,167.64155 200.98668,58.595583 V 137.70736 L 19.243406,226.44084 Z"
         id="path7684-9-3-9-3-8-9-4-5-8-2-7-1-4-3"
         inkscape:connector-curvature="0" />
    </clipPath>
    <clipPath
       clipPathUnits="userSpaceOnUse"
       id="clipPath7682-5-83-6-2-7-8-3-3-0-6-9-0-9-4-4">
      <path
         style="fill:none;stroke:#000000;stroke-width:0.26458332px;stroke-linecap:butt;stroke-linejoin:miter;stroke-opacity:1"
         d="M 6.4144686,167.64155 200.98668,58.595583 V 137.70736 L 19.243406,226.44084 Z"
         id="path7684-9-3-9-3-8-9-4-5-8-2-7-1-4-3-3"
         inkscape:connector-curvature="0" />
    </clipPath>
    <linearGradient
       inkscape:collect="always"
       xlink:href="#linearGradient14061"
       id="linearGradient1650"
       x1="252.59985"
       y1="1733.7794"
       x2="303.07898"
       y2="1733.7794"
       gradientUnits="userSpaceOnUse"
       gradientTransform="matrix(0.18205161,0,0,0.10800666,-5.55064,-14.097991)" />
    <linearGradient
       inkscape:collect="always"
       xlink:href="#linearGradient14061"
       id="linearGradient1650-4"
       x1="252.59985"
       y1="1733.7794"
       x2="303.07898"
       y2="1733.7794"
       gradientUnits="userSpaceOnUse"
       gradientTransform="matrix(0.10557056,0,0,0.06857629,52.113392,39.788356)" />
    <linearGradient
       inkscape:collect="always"
       xlink:href="#linearGradient14061"
       id="linearGradient14719-1"
       x1="16.036175"
       y1="1228.167"
       x2="81.249931"
       y2="1228.167"
       gradientUnits="userSpaceOnUse"
       gradientTransform="matrix(0.25542223,0,0,0.23643741,-33.62869,-94.99232)" />
    <clipPath
       clipPathUnits="userSpaceOnUse"
       id="clipPath7682-5-83-6-2-7-8-3-3-0-6-9-0-9-4-4-6">
      <path
         style="fill:none;stroke:#000000;stroke-width:0.26458332px;stroke-linecap:butt;stroke-linejoin:miter;stroke-opacity:1"
         d="M 6.4144686,167.64155 200.98668,58.595583 V 137.70736 L 19.243406,226.44084 Z"
         id="path7684-9-3-9-3-8-9-4-5-8-2-7-1-4-3-3-0"
         inkscape:connector-curvature="0" />
    </clipPath>
    <clipPath
       clipPathUnits="userSpaceOnUse"
       id="clipPath7682-5-83-6-2-7-8-3-3-0-6-9-0-9-4-4-3">
      <path
         style="fill:none;stroke:#000000;stroke-width:0.26458332px;stroke-linecap:butt;stroke-linejoin:miter;stroke-opacity:1"
         d="M 6.4144686,167.64155 200.98668,58.595583 V 137.70736 L 19.243406,226.44084 Z"
         id="path7684-9-3-9-3-8-9-4-5-8-2-7-1-4-3-3-01"
         inkscape:connector-curvature="0" />
    </clipPath>
    <clipPath
       clipPathUnits="userSpaceOnUse"
       id="clipPath7682-5-83-6-2-7-8-3-3-0-6-9-0-9-4-4-32">
      <path
         style="fill:none;stroke:#000000;stroke-width:0.26458332px;stroke-linecap:butt;stroke-linejoin:miter;stroke-opacity:1"
         d="M 6.4144686,167.64155 200.98668,58.595583 V 137.70736 L 19.243406,226.44084 Z"
         id="path7684-9-3-9-3-8-9-4-5-8-2-7-1-4-3-3-7"
         inkscape:connector-curvature="0" />
    </clipPath>
    <clipPath
       clipPathUnits="userSpaceOnUse"
       id="clipPath7682-5-83-6-2-7-8-3-3-0-6-9-0-9-4-4-60">
      <path
         style="fill:none;stroke:#000000;stroke-width:0.26458332px;stroke-linecap:butt;stroke-linejoin:miter;stroke-opacity:1"
         d="M 6.4144686,167.64155 200.98668,58.595583 V 137.70736 L 19.243406,226.44084 Z"
         id="path7684-9-3-9-3-8-9-4-5-8-2-7-1-4-3-3-2"
         inkscape:connector-curvature="0" />
    </clipPath>
    <clipPath
       clipPathUnits="userSpaceOnUse"
       id="clipPath7682-5-83-6-2-7-8-3-3-0-6-9-0-9-4-4-60-6">
      <path
         style="fill:none;stroke:#000000;stroke-width:0.26458332px;stroke-linecap:butt;stroke-linejoin:miter;stroke-opacity:1"
         d="M 6.4144686,167.64155 200.98668,58.595583 V 137.70736 L 19.243406,226.44084 Z"
         id="path7684-9-3-9-3-8-9-4-5-8-2-7-1-4-3-3-2-1"
         inkscape:connector-curvature="0" />
    </clipPath>
    <clipPath
       clipPathUnits="userSpaceOnUse"
       id="clipPath7682-5-83-6-2-7-8-3-3-0-6-9-0-9-4-4-32-5">
      <path
         style="fill:none;stroke:#000000;stroke-width:0.26458332px;stroke-linecap:butt;stroke-linejoin:miter;stroke-opacity:1"
         d="M 6.4144686,167.64155 200.98668,58.595583 V 137.70736 L 19.243406,226.44084 Z"
         id="path7684-9-3-9-3-8-9-4-5-8-2-7-1-4-3-3-7-8"
         inkscape:connector-curvature="0" />
    </clipPath>
    <clipPath
       clipPathUnits="userSpaceOnUse"
       id="clipPath7682-5-83-6-2-7-8-3-3-0-6-9-0-9-4-4-9">
      <path
         style="fill:none;stroke:#000000;stroke-width:0.26458332px;stroke-linecap:butt;stroke-linejoin:miter;stroke-opacity:1"
         d="M 6.4144686,167.64155 200.98668,58.595583 V 137.70736 L 19.243406,226.44084 Z"
         id="path7684-9-3-9-3-8-9-4-5-8-2-7-1-4-3-3-9"
         inkscape:connector-curvature="0" />
    </clipPath>
    <clipPath
       clipPathUnits="userSpaceOnUse"
       id="clipPath7682-5-83-6-2-7-8-3-3-0-6-9-0-9-4-4-5">
      <path
         style="fill:none;stroke:#000000;stroke-width:0.26458332px;stroke-linecap:butt;stroke-linejoin:miter;stroke-opacity:1"
         d="M 6.4144686,167.64155 200.98668,58.595583 V 137.70736 L 19.243406,226.44084 Z"
         id="path7684-9-3-9-3-8-9-4-5-8-2-7-1-4-3-3-91"
         inkscape:connector-curvature="0" />
    </clipPath>
    <clipPath
       clipPathUnits="userSpaceOnUse"
       id="clipPath7682-5-83-6-2-7-8-3-3-0-6-9-0-9-4-4-37">
      <path
         style="fill:none;stroke:#000000;stroke-width:0.26458332px;stroke-linecap:butt;stroke-linejoin:miter;stroke-opacity:1"
         d="M 6.4144686,167.64155 200.98668,58.595583 V 137.70736 L 19.243406,226.44084 Z"
         id="path7684-9-3-9-3-8-9-4-5-8-2-7-1-4-3-3-6"
         inkscape:connector-curvature="0" />
    </clipPath>
    <clipPath
       clipPathUnits="userSpaceOnUse"
       id="clipPath7682-5-83-6-2-7-8-3-3-0-6-9-0-9-4-4-64">
      <path
         style="fill:none;stroke:#000000;stroke-width:0.26458332px;stroke-linecap:butt;stroke-linejoin:miter;stroke-opacity:1"
         d="M 6.4144686,167.64155 200.98668,58.595583 V 137.70736 L 19.243406,226.44084 Z"
         id="path7684-9-3-9-3-8-9-4-5-8-2-7-1-4-3-3-4"
         inkscape:connector-curvature="0" />
    </clipPath>
    <clipPath
       clipPathUnits="userSpaceOnUse"
       id="clipPath7682-5-83-6-2-7-8-3-3-0-6-9-0-9-4-4-37-1">
      <path
         style="fill:none;stroke:#000000;stroke-width:0.26458332px;stroke-linecap:butt;stroke-linejoin:miter;stroke-opacity:1"
         d="M 6.4144686,167.64155 200.98668,58.595583 V 137.70736 L 19.243406,226.44084 Z"
         id="path7684-9-3-9-3-8-9-4-5-8-2-7-1-4-3-3-6-2"
         inkscape:connector-curvature="0" />
    </clipPath>
    <clipPath
       clipPathUnits="userSpaceOnUse"
       id="clipPath7682-5-83-6-2-7-8-3-3-0-6-9-0-9-4-4-91">
      <path
         style="fill:none;stroke:#000000;stroke-width:0.26458332px;stroke-linecap:butt;stroke-linejoin:miter;stroke-opacity:1"
         d="M 6.4144686,167.64155 200.98668,58.595583 V 137.70736 L 19.243406,226.44084 Z"
         id="path7684-9-3-9-3-8-9-4-5-8-2-7-1-4-3-3-08"
         inkscape:connector-curvature="0" />
    </clipPath>
  </defs>
  <sodipodi:namedview
     id="base"
     pagecolor="#ecf53e"
     bordercolor="#666666"
     borderopacity="1.0"
     inkscape:pageopacity="1"
     inkscape:pageshadow="2"
     inkscape:zoom="2.8"
     inkscape:cx="87.162245"
     inkscape:cy="91.178945"
     inkscape:document-units="mm"
     inkscape:current-layer="layer14"
     showgrid="false"
     inkscape:window-width="1366"
     inkscape:window-height="705"
     inkscape:window-x="-8"
     inkscape:window-y="-8"
     inkscape:window-maximized="1"
     showguides="false"
     inkscape:guide-bbox="true"
     guidetolerance="10000">
    <sodipodi:guide
       position="105.43303,235.26781"
       orientation="1,0"
       id="guide3519"
       inkscape:locked="false" />
    <inkscape:grid
       type="xygrid"
       id="grid3097"
       originx="-6.5476222"
       originy="8.5714052" />
  </sodipodi:namedview>
  <metadata
     id="metadata1775">
    <rdf:RDF>
      <cc:Work
         rdf:about="">
        <dc:format>image/svg+xml</dc:format>
        <dc:type
           rdf:resource="http://purl.org/dc/dcmitype/StillImage" />
        <dc:title></dc:title>
      </cc:Work>
    </rdf:RDF>
  </metadata>
  <g
     inkscape:groupmode="layer"
     id="layer5"
     inkscape:label="Ebene 5"
     style="display:inline"
     transform="translate(4.7023795,-169.46308)">
    <circle
       style="display:inline;opacity:0.97000002;fill:#000080;fill-opacity:1;stroke:none;stroke-width:0.34882274;paint-order:fill markers stroke"
       id="bluething"
       cx="21.226763"
       cy="195.39224"
       r="23.254829" />
  </g>
  <g
     inkscape:groupmode="layer"
     id="layer4"
     inkscape:label="Ebene 4"
     style="display:inline"
     transform="translate(4.7023795,-169.46308)">
    <path
       style="display:inline;opacity:1;fill:#00ff00;fill-opacity:1;stroke:#1a1a1a;stroke-width:0.11627425;stroke-opacity:1;paint-order:fill markers stroke"
       d="m 21.208467,172.02798 a 8.3701523,23.371088 0 0 1 0.592121,0.0584 8.3701523,23.371088 0 0 1 0.830549,0.28153 8.3701523,23.371088 0 0 1 0.816358,0.51171 8.3701523,23.371088 0 0 1 0.793941,0.7366 8.3701523,23.371088 0 0 1 0.763762,0.95423 8.3701523,23.371088 0 0 1 0.725741,1.16245 8.3701523,23.371088 0 0 1 0.680559,1.35894 8.3701523,23.371088 0 0 1 0.628504,1.54179 8.3701523,23.371088 0 0 1 0.570273,1.70931 8.3701523,23.371088 0 0 1 0.506401,1.8598 8.3701523,23.371088 0 0 1 0.437317,1.99155 8.3701523,23.371088 0 0 1 0.36394,2.10351 8.3701523,23.371088 0 0 1 0.286813,2.19457 8.3701523,23.371088 0 0 1 0.207002,2.26354 8.3701523,23.371088 0 0 1 0.125151,2.30993 8.3701523,23.371088 0 0 1 0.04177,2.33321 8.3701523,23.371088 0 0 1 -0.02127,1.65317 8.3701523,23.371088 0 0 1 -0.100865,2.31908 8.3701523,23.371088 0 0 1 -0.183221,2.27942 8.3701523,23.371088 0 0 1 -0.263755,2.21697 8.3701523,23.371088 0 0 1 -0.341823,2.13237 8.3701523,23.371088 0 0 1 -0.416259,2.02636 8.3701523,23.371088 0 0 1 -0.486738,1.90022 8.3701523,23.371088 0 0 1 -0.552151,1.75507 8.3701523,23.371088 0 0 1 -0.612216,1.59257 8.3701523,23.371088 0 0 1 -0.665957,1.41371 8.3701523,23.371088 0 0 1 -0.713261,1.22104 8.3701523,23.371088 0 0 1 -0.753411,1.01623 8.3701523,23.371088 0 0 1 -0.785987,0.80096 8.3701523,23.371088 0 0 1 -0.810567,0.57802 8.3701523,23.371088 0 0 1 -0.827354,0.34916 8.3701523,23.371088 0 0 1 -0.835614,0.11667 23.371088,23.371088 0 0 0 23.371056,-23.37102 23.371088,23.371088 0 0 0 -23.371058,-23.37112 z"
       id="greenthing"
       inkscape:connector-curvature="0" />
  </g>
  <g
     inkscape:groupmode="layer"
     id="layer3"
     inkscape:label="Ebene 3"
     style="display:inline"
     transform="translate(4.7023795,-169.46308)">
    <ellipse
       style="display:inline;opacity:0.2;fill:url(#linearGradient1650);fill-opacity:1;stroke:none;stroke-width:0.05099681;paint-order:fill markers stroke"
       id="path7742-3-2-1-3-0"
       cx="45.030468"
       cy="173.1617"
       rx="4.5949073"
       ry="2.5155175"
       transform="matrix(-0.94185307,0.33602499,0.33602499,0.94185307,0,0)" />
    <ellipse
       style="display:inline;opacity:0.2;fill:url(#linearGradient1650-4);fill-opacity:1;stroke:none;stroke-width:0.03094422;paint-order:fill markers stroke"
       id="path7742-3-2-1-3-0-3"
       cx="81.444984"
       cy="158.6844"
       rx="2.6645536"
       ry="1.5971664"
       transform="matrix(-0.83957101,0.54324996,0.47943075,0.87757972,0,0)" />
  </g>
  <g
     inkscape:groupmode="layer"
     id="layer10"
     inkscape:label="Ebene 7"
     style="display:inline"
     transform="translate(4.7023795,-169.46308)">
    <ellipse
       style="display:inline;opacity:0.5;fill:url(#linearGradient14719-1);fill-opacity:1;stroke:none;stroke-width:0.06502052;paint-order:fill markers stroke"
       id="path14698-6"
       cx="-21.204155"
       cy="195.39224"
       rx="8.3285341"
       ry="23.254829"
       transform="scale(-1,1)" />
  </g>
  <g
     inkscape:groupmode="layer"
     id="layer6"
     inkscape:label="Ebene 6"
     style="display:inline"
     transform="translate(4.7023795,-169.46308)">
    <path
       style="display:inline;opacity:1;fill:#f9f9f9;fill-opacity:1;stroke:#1a1a1a;stroke-width:0.69764549;paint-order:fill markers stroke"
       d="M 21.226775,169.8119 A 25.580308,25.580308 0 0 0 -4.3535568,195.39225 25.580308,25.580308 0 0 0 21.226775,220.97259 25.580308,25.580308 0 0 0 46.807131,195.39225 25.580308,25.580308 0 0 0 21.226775,169.8119 Z m 0,2.32546 A 23.254843,23.254843 0 0 1 44.481647,195.39225 23.254843,23.254843 0 0 1 21.226775,218.647 23.254843,23.254843 0 0 1 -2.0280955,195.39225 23.254843,23.254843 0 0 1 21.226775,172.13736 Z"
       id="path14834-5-0-7-8-0"
       inkscape:connector-curvature="0"
	   class="circleG"	/>
  </g>
  <g
     inkscape:groupmode="layer"
     id="layerG"
     inkscape:label="Ebene 9"
     style="display:inline"
     transform="translate(-6.5476204,-180.71308)">
    <g
       id="g3095"
       transform="matrix(0.23254843,0,0,0.23254843,8.1379245,182.23003)"
       style="fill:#f9f9f9;stroke:#1a1a1a;stroke-width:3">
      <path
         inkscape:connector-curvature="0"
         id="path3027-4"
         d="m 93.147771,128.91785 a 46.873817,141.0084 79.429749 0 0 -5.109266,3.18665 46.873817,141.0084 79.429749 0 0 -7.161333,5.25929 46.873817,141.0084 79.429749 0 0 -5.93914,5.28189 46.873817,141.0084 79.429749 0 0 -4.656489,5.25134 46.873817,141.0084 79.429749 0 0 -1.164464,1.8091 c 8.680443,7.66724 20.405855,12.81187 33.034321,14.24235 3.66701,0.41537 14.58204,0.13379 20.22461,-0.52184 10.89472,-1.26585 20.2289,-3.31659 28.55242,-6.27306 2.71079,-0.96283 5.19637,-1.83249 5.52353,-1.93256 0.5599,-0.17131 0.59485,-1.75448 0.59485,-26.99494 v -25.78996 a 46.873817,141.0084 79.429749 0 0 -5.11657,1.44393 46.873817,141.0084 79.429749 0 0 -12.62645,4.06566 46.873817,141.0084 79.429749 0 0 -11.98647,4.38164 46.873817,141.0084 79.429749 0 0 -11.22764,4.65448 46.873817,141.0084 79.429749 0 0 -6.47023,3.04926 c 0.83376,0.84621 1.66977,1.62059 2.42716,2.14167 2.05603,1.4146 5.44078,2.62648 8.0961,2.89855 l 2.2333,0.22903 -0.003,3.9468 c -10e-4,2.17086 -0.0982,4.95989 -0.2151,6.19805 -0.20989,2.22184 -0.22846,2.25709 -1.44196,2.65754 -1.82654,0.60273 -8.33102,0.84036 -11.46266,0.4189 -5.71735,-0.76945 -9.474011,-2.59911 -13.390583,-6.52137 -1.105885,-1.10745 -1.955422,-2.09999 -2.715293,-3.0824 z"
         style="display:inline;fill:#f9f9f9;stroke:#1a1a1a;stroke-width:3"
		 class="layerG" />
      <path
         inkscape:connector-curvature="0"
         id="path2972-0"
         d="m 165.20464,49.746773 h -27.61766 c -16.57073,0 -29.18123,0.144326 -31.52662,0.358503 -14.053482,1.283193 -26.63467,6.34625 -36.645859,14.748204 -12.598922,10.573774 -19.436987,26.723324 -18.64656,44.03689 0.386612,8.46814 2.070797,15.90553 5.074749,22.63853 a 44.952512,117.76027 79.757865 0 1 2.816865,-2.47101 44.952512,117.76027 79.757865 0 1 6.526674,-4.77002 44.952512,117.76027 79.757865 0 1 7.452111,-4.63854 44.952512,117.76027 79.757865 0 1 8.303891,-4.45934 44.952512,117.76027 79.757865 0 1 6.864578,-3.20525 c -0.366556,-6.6507 0.692878,-13.54853 3.138188,-18.697681 2.672043,-5.626559 6.081844,-9.100163 11.546303,-11.762709 5.83693,-2.844092 6.16954,-2.883012 24.96212,-2.910511 20.29843,-0.02957 21.58643,-0.123013 25.00062,-1.810393 5.34793,-2.643103 9.51063,-8.588871 11.2449,-16.060732 0.54002,-2.326681 1.48621,-8.785542 1.49906,-10.231824 z"
         style="display:inline;fill:#f9f9f9;stroke:#1a1a1a;stroke-width:3" 
		 class="layerG" />
    </g>
    <path
       style="display:inline;opacity:1;fill:#f9f9f9;fill-opacity:1;stroke:#1a1a1a;stroke-width:0.69764549;stroke-opacity:1;paint-order:fill markers stroke"
       d="m 37.317642,203.49229 a 10.393177,23.975403 78.28666 0 0 -20.647172,15.18576 10.393177,23.975403 78.28666 0 0 8.634444,5.5536 10.834524,28.716202 78.091435 0 1 -4.082497,-3.93855 10.834524,28.716202 78.091435 0 1 25.161369,-16.6296 10.834524,28.716202 78.091435 0 1 6.594983,-1.134 10.393177,23.975403 78.28666 0 0 -15.661127,0.96279 z"
       id="path2238-2-1"
       inkscape:connector-curvature="0" 
	   class="layerG" />
  </g>
</svg>
