<svg xmlns="http://www.w3.org/2000/svg" viewBox="0 0 996.31 1613.59"><defs><style>.cls-1,.cls-3{fill:none;stroke:#fff;}.cls-1,.cls-3,.cls-4{stroke-miterlimit:10;}.cls-1{stroke-width:5px;}.cls-2,.cls-5{fill:#fff;}.cls-3{stroke-width:12px;}.cls-4{stroke:#000;stroke-width:6px;}.cls-5{font-size:72px;font-family:KozGoPr6N-Regular-90ms-RKSJ-H, Kozuka Gothic Pr6N;}.cls-6{font-family:MyriadPro-Regular, Myriad Pro;}</style></defs><title>Element 2sendbutton</title><g id="Ebene_2" data-name="Ebene 2"><g id="Ebene_1-2" data-name="Ebene 1"><path d="M530.52,298c5.76,5.76,8,12.77,9,16,1.31,4.15,4.54,14.89,0,27-.77,2.05-6,15.47-19,21-11.46,4.89-17.28-1.35-31,5a45.34,45.34,0,0,0-12.43,8.57,42.46,42.46,0,0,0-6.57,8.43c-5.95,10.15-10.08,27.94-2,38,3.08,3.82,7.72,6.17,7,8-.86,2.19-8.39,1.09-9,1-17.27-2.62-28.59-25.74-31-31-10.06-22-7-42.88-5-52,1.48-6.68,4.88-21.2,17-35,3.66-4.16,16.77-18.66,39-23C493.27,288.68,516.63,284.12,530.52,298Z"/><circle cx="773.52" cy="89" r="89"/><polygon class="cls-1" points="551.79 247.66 457.27 247.66 390.43 314.5 390.43 409.02 457.27 475.86 551.79 475.86 618.63 409.02 618.63 314.5 551.79 247.66"/><polygon class="cls-1" points="417.2 274.43 381.03 361.76 417.2 449.08 504.53 485.26 591.86 449.08 628.03 361.76 591.86 274.43 504.53 238.26 417.2 274.43"/><path class="cls-2" d="M503.46,286a79,79,0,1,0,79,79A79.23,79.23,0,0,0,503.46,286ZM431,365a72.63,72.63,0,0,1,72.42-72.42c19.42,0,35.22,15.47,35.22,34.57s-15.8,34.56-35.22,34.56c-23,0-41.8,18.43-41.8,41.14a41.49,41.49,0,0,0,10.86,27.65A72.57,72.57,0,0,1,431,365Zm72.42,72.42c-19.42,0-35.22-15.47-35.22-34.57s15.8-34.56,35.22-34.56c23,0,41.81-18.43,41.81-41.14A41.45,41.45,0,0,0,534.4,299.5a72.43,72.43,0,0,1-30.94,137.92Z"/><path class="cls-2" d="M503.46,393A12.51,12.51,0,1,0,516,405.49,12.51,12.51,0,0,0,503.46,393Zm0,18.43a5.93,5.93,0,1,1,5.93-5.92A5.89,5.89,0,0,1,503.46,411.41Z"/><path class="cls-2" d="M503.46,339.65A12.51,12.51,0,1,0,491,327.15,12.5,12.5,0,0,0,503.46,339.65Zm0-18.43a5.93,5.93,0,1,1-5.92,5.93A5.9,5.9,0,0,1,503.46,321.22Z"/><polygon class="cls-3" points="499.12 88.97 370.66 120.63 271.63 208.36 224.72 332.07 240.67 463.41 315.82 572.29 432.97 633.77 565.27 633.77 682.42 572.29 757.58 463.41 773.52 332.07 726.61 208.36 627.58 120.63 499.12 88.97"/><path class="cls-4" d="M462,739.5c2,7.6,4.53,16.86,1,25-.7,1.63-3.47,8-9,9-6,1.07-11.22-5.08-12-6-6.86-8.13-5.84-21.08-2-30,2.63-6.1,4.63-5.8,19-20,15.54-15.34,19.88-22.28,28-22,1.57,0,1.82.9,10,4,4.73,1.79,7.09,2.53,7,3-.13.69-5.34-.91-11,0-5.26.85-6.92,3.23-20,14-9.41,7.76-12.36,9.66-13,14C459.63,733.18,460.54,734,462,739.5Z"/><path class="cls-4" d="M532,739.5c-2,7.6-4.53,16.86-1,25,.7,1.63,3.47,8,9,9,6,1.07,11.22-5.08,12-6,6.85-8.13,5.83-21.08,2-30-2.63-6.1-4.63-5.8-19-20-15.54-15.34-19.88-22.28-28-22-1.57,0-1.82.9-10,4-4.73,1.79-7.09,2.53-7,3,.13.69,5.34-.91,11,0,5.26.85,6.92,3.23,20,14,9.41,7.76,12.36,9.66,13,14C534.4,733.18,533.49,734,532,739.5Z"/><path class="cls-4" d="M470,780.5c1.17-.76,3.08-1,10,2,5.5,2.41,5.23,3,8,4,7.37,2.71,14.72.64,17,0a51.79,51.79,0,0,0,10-4c3.42-1.9,5.6-3.75,8-3a4.34,4.34,0,0,1,3,3c.64,4-9,9.66-17,12-11,3.2-20.16.63-26-1-4.34-1.21-14.65-4.1-15-9A4.66,4.66,0,0,1,470,780.5Z"/><path class="cls-4" d="M524,780.5c-1.16-.76-3.07-1-10,2-5.5,2.41-5.22,3-8,4-7.37,2.71-14.71.64-17,0a52.13,52.13,0,0,1-10-4c-3.42-1.9-5.59-3.75-8-3a4.37,4.37,0,0,0-3,3c-.63,4,9,9.66,17,12,11,3.2,20.16.63,26-1,4.35-1.21,14.65-4.1,15-9A4.63,4.63,0,0,0,524,780.5Z"/><path class="cls-4" d="M468.19,804.5c-7.31,5.46-11.12,19.46-7.79,26,1.67,3.28,3.88,2.21,6.24,6,4.1,6.59,1.81,16.92,1.55,18-2.85,12.24-13.13,20.85-13.25,21h0s-4.2,2.73-4.68,6c-.32,2.18,1.2,3.32,2.34,6,3.3,7.76-2.14,15.37.78,20,1.69,2.67,3.78.59,7.8,3,6,3.61,10.5,13.82,8.57,20-.5,1.6-1.31,2.56-9.35,8-10,6.74-11.59,7.21-12.48,10-1.06,3.35.41,5.36,3.12,17,.5,2.12,1.37,6.75,3.12,16,2.38,12.6,3.58,19,3.9,24,.49,7.78-.29,8.78.78,11,3.85,8,19.41,6.14,25.73,3,36.61-18.17,24.79-207.86-3.12-217A15.53,15.53,0,0,0,468.19,804.5Z"/><path class="cls-4" d="M526.9,804.5c7.32,5.46,11.13,19.46,7.8,26-1.67,3.28-3.88,2.21-6.24,6-4.1,6.59-1.81,16.92-1.56,18,2.86,12.24,13.14,20.85,13.26,21h0s4.2,2.73,4.68,6c.31,2.18-1.21,3.32-2.34,6-3.3,7.76,2.14,15.37-.78,20-1.69,2.67-3.78.59-7.8,3-6,3.61-10.5,13.82-8.58,20,.5,1.6,1.32,2.56,9.36,8,10,6.74,11.58,7.21,12.47,10,1.07,3.35-.41,5.36-3.11,17-.5,2.12-1.37,6.75-3.12,16-2.39,12.6-3.58,19-3.9,24-.49,7.78.28,8.78-.78,11-3.85,8-19.41,6.14-25.73,3-36.61-18.17-24.8-207.86,3.12-217A15.5,15.5,0,0,1,526.9,804.5Z"/><path class="cls-4" d="M461,838.5c-8.51-10-21.73-20.53-88-39-26.12-7.28-42.33-11.8-70-17-15-2.81-86.28-15.79-176-12,0,0-31.95,1.35-75,15-16.53,5.24-26.89,10-35,20-12.37,15.34-12.1,33.94-12,41,.36,24.25,12.48,41.21,16,46,4.36,5.92,18.27,23.13,67,38,16.86,5.14,42.45,11.4,108,15,37.51,2.06,56.26,3.09,81,2,95.18-4.2,93.92-27.91,173-35,7.09-.64,20.3-1.63,27-11C487.77,886.46,476.74,856.88,461,838.5Z"/><path class="cls-4" d="M445,975.5c-20.56,21.84-43.67,28.08-84,40-113.87,33.65,112.91-28.72-126,39-110.47,31.32-130,36.44-157,26-8.48-3.28-41.39-16-54-49-10.59-27.74-.35-52.82,1-56,12.14-28.46,38.44-39.12,48-43,23.9-9.69,45.54-7.49,51-7,105.42,9.5,326.14-63.74,349-13C483.16,935,449.42,970.83,445,975.5Z"/><path class="cls-4" d="M537.28,838.5c8.52-10,21.74-20.53,88-39,26.13-7.28,42.34-11.8,70-17,15-2.81,86.29-15.79,176-12,0,0,32,1.35,75,15,16.54,5.24,26.89,10,35,20,12.38,15.34,12.11,33.94,12,41-.35,24.25-12.48,41.21-16,46-4.35,5.92-18.27,23.13-67,38-16.86,5.14-42.44,11.4-108,15-37.5,2.06-56.26,3.09-81,2-95.18-4.2-93.92-27.91-173-35-7.08-.64-20.3-1.63-27-11C510.53,886.46,521.57,856.88,537.28,838.5Z"/><path class="cls-4" d="M550.28,973.5c20.57,21.84,43.67,28.08,84,40,113.88,33.65-112.91-28.72,126,39,110.48,31.32,130,36.44,157,26,8.49-3.28,41.4-16,54-49,10.6-27.74.36-52.82-1-56-12.13-28.46-38.43-39.12-48-43-23.9-9.69-45.54-7.49-51-7-105.41,9.5-326.13-63.74-349-13C512.14,933,545.89,968.83,550.28,973.5Z"/><path class="cls-4" d="M532,1025.5c-13.64,20.33-54.51,20.72-69,0-12-17.22-.44-41.28,2-46,2.31-4.45,13.64-26.32,32-26,16.15.29,26.22,17.53,30,24C528.94,980.78,544.34,1007.14,532,1025.5Z"/><path class="cls-4" d="M493,1120.5c-.15.3-13.48,15.26-13,16,1.3,2,8-3,18-3,3.31,0,10.28,0,16.37,4.38,1.61,1.14,2,1.75,2.63,1.62,4.19-.8.18-27.8,1-50,1.8-48.38,26.13-63.43,16-80-11.19-18.32-40.07-23.84-50-9"/><path class="cls-4" d="M501.47,1120.5c.15.3,13.48,15.26,13,16-1.29,2-8-3-18-3-3.31,0-10.28,0-16.37,4.38-1.61,1.14-2,1.74-2.63,1.62-4.19-.8-.18-27.8-1-50-1.8-48.38-26.13-63.43-16-80,11.19-18.32,40.07-23.84,50-9"/><path d="M476.52,1123.15c4.19-2.57,8.14,12.51,19,13.34,11.92.91,17.27-16.49,22-13.34,8.33,5.55-3,62.81-5,135.06-1.9,67.53,4.83,129.16-2,131.71-3.51,1.31-6.64-14.47-15-15-7.93-.51-11.43,13.31-15,11.67-7.14-3.29.48-61.61,0-125C480,1186.93,468.4,1128.14,476.52,1123.15Z"/><path d="M482.11,1354.55c3.08-2.49,6,12.15,14,13,8.78.88,12.71-16,16.2-13,6.13,5.39-2.19,61-3.68,131.1-1.4,65.56,3.55,125.39-1.48,127.86-2.58,1.28-4.89-14-11-14.56-5.84-.49-8.42,12.92-11.05,11.33-5.26-3.2.35-59.81,0-121.39C484.64,1416.47,476.12,1359.39,482.11,1354.55Z"/><path class="cls-4" d="M534.28,739.5c-2,7.6-4.52,16.86-1,25,.71,1.63,3.48,8,9,9,6,1.07,11.23-5.08,12-6,6.86-8.13,5.84-21.08,2-30-2.62-6.1-4.62-5.8-19-20-15.53-15.34-19.87-22.28-28-22-1.56,0-1.81.9-10,4-4.72,1.79-7.09,2.53-7,3,.14.69,5.35-.91,11,0,5.26.85,6.93,3.23,20,14,9.42,7.76,12.36,9.66,13,14C536.68,733.18,535.77,734,534.28,739.5Z"/><path class="cls-4" d="M464.3,739.5c2,7.6,4.53,16.86,1,25-.71,1.63-3.48,8-9,9-6,1.07-11.22-5.08-12-6-6.86-8.13-5.84-21.08-2-30,2.63-6.1,4.62-5.8,19-20,15.54-15.34,19.88-22.28,28-22,1.57,0,1.81.9,10,4,4.72,1.79,7.09,2.53,7,3-.13.69-5.34-.91-11,0-5.26.85-6.92,3.23-20,14-9.41,7.76-12.36,9.66-13,14C461.91,733.18,462.81,734,464.3,739.5Z"/><path class="cls-4" d="M526.28,780.5c-1.16-.76-3.07-1-10,2-5.5,2.41-5.22,3-8,4-7.37,2.71-14.71.64-17,0a52.13,52.13,0,0,1-10-4c-3.42-1.9-5.59-3.75-8-3a4.37,4.37,0,0,0-3,3c-.64,4,9,9.66,17,12,11,3.2,20.16.63,26-1,4.35-1.21,14.65-4.1,15-9A4.66,4.66,0,0,0,526.28,780.5Z"/><path class="cls-4" d="M472.26,780.5c1.17-.76,3.07-1,10,2,5.5,2.41,5.23,3,8,4,7.37,2.71,14.72.64,17,0a52.13,52.13,0,0,0,10-4c3.42-1.9,5.6-3.75,8-3a4.36,4.36,0,0,1,3,3c.64,4-9,9.66-17,12-11,3.2-20.16.63-26-1-4.34-1.21-14.65-4.1-15-9A4.66,4.66,0,0,1,472.26,780.5Z"/><path class="cls-4" d="M528.11,804.5c7.31,5.46,11.13,19.46,7.8,26-1.67,3.28-3.88,2.21-6.24,6-4.1,6.59-1.81,16.92-1.56,18,2.85,12.24,13.14,20.85,13.26,21h0s4.19,2.73,4.67,6c.32,2.18-1.2,3.32-2.34,6-3.3,7.76,2.14,15.37-.78,20-1.68,2.67-3.78.59-7.79,3-6,3.61-10.5,13.82-8.58,20,.5,1.6,1.31,2.56,9.36,8,10,6.74,11.58,7.21,12.47,10,1.07,3.35-.41,5.36-3.12,17-.49,2.12-1.37,6.75-3.12,16-2.38,12.6-3.58,19-3.89,24-.5,7.78.28,8.78-.78,11-3.85,8-19.41,6.14-25.73,3-36.61-18.17-24.8-207.86,3.12-217A15.5,15.5,0,0,1,528.11,804.5Z"/><path class="cls-4" d="M469.4,804.5c-7.31,5.46-11.13,19.46-7.79,26,1.67,3.28,3.88,2.21,6.23,6,4.1,6.59,1.81,16.92,1.56,18-2.85,12.24-13.13,20.85-13.25,21h0s-4.2,2.73-4.68,6c-.32,2.18,1.2,3.32,2.34,6,3.3,7.76-2.14,15.37.78,20,1.68,2.67,3.78.59,7.8,3,6,3.61,10.5,13.82,8.57,20-.5,1.6-1.31,2.56-9.35,8-10,6.74-11.59,7.21-12.48,10-1.07,3.35.41,5.36,3.12,17,.49,2.12,1.37,6.75,3.12,16,2.38,12.6,3.58,19,3.9,24,.49,7.78-.29,8.78.78,11,3.85,8,19.4,6.14,25.72,3,36.62-18.17,24.8-207.86-3.11-217A15.51,15.51,0,0,0,469.4,804.5Z"/><path class="cls-4" d="M535.28,838.5c8.52-10,21.74-20.53,88-39,26.13-7.28,42.34-11.8,70-17,15-2.81,86.29-15.79,176-12,0,0,32,1.35,75,15,16.54,5.24,26.89,10,35,20,12.38,15.34,12.11,33.94,12,41-.35,24.25-12.48,41.21-16,46-4.35,5.92-18.27,23.13-67,38-16.86,5.14-42.44,11.4-108,15-37.5,2.06-56.26,3.09-81,2-95.18-4.2-93.92-27.91-173-35-7.08-.64-20.3-1.63-27-11C508.53,886.46,519.57,856.88,535.28,838.5Z"/><path class="cls-4" d="M551.28,975.5c20.57,21.84,43.67,28.08,84,40,113.88,33.65-112.91-28.72,126,39,110.48,31.32,130,36.44,157,26,8.49-3.28,41.4-16,54-49,10.6-27.74.36-52.82-1-56-12.13-28.46-38.43-39.12-48-43-23.9-9.69-45.54-7.49-51-7-105.41,9.5-326.13-63.74-349-13C513.14,935,546.89,970.83,551.28,975.5Z"/><path class="cls-4" d="M459,838.5c-8.51-10-21.73-20.53-88-39-26.12-7.28-42.33-11.8-70-17-15-2.81-86.28-15.79-176-12,0,0-31.95,1.35-75,15-16.53,5.24-26.89,10-35,20-12.37,15.34-12.1,33.94-12,41,.36,24.25,12.48,41.21,16,46,4.36,5.92,18.27,23.13,67,38,16.86,5.14,42.45,11.4,108,15,37.51,2.06,56.26,3.09,81,2,95.18-4.2,93.92-27.91,173-35,7.09-.64,20.3-1.63,27-11C485.77,886.46,474.74,856.88,459,838.5Z"/><path class="cls-4" d="M446,973.5c-20.56,21.84-43.67,28.08-84,40-113.87,33.65,112.91-28.72-126,39-110.47,31.32-130,36.44-157,26-8.48-3.28-41.39-16-54-49-10.59-27.74-.35-52.82,1-56,12.14-28.46,38.44-39.12,48-43,23.9-9.69,45.54-7.49,51-7,105.42,9.5,326.14-63.74,349-13C484.16,933,450.42,968.83,446,973.5Z"/><path class="cls-4" d="M464.28,1025.5c13.65,20.33,54.52,20.72,69,0,12-17.22.45-41.28-2-46-2.3-4.45-13.64-26.32-32-26-16.14.29-26.22,17.53-30,24C467.37,980.78,452,1007.14,464.28,1025.5Z"/><path class="cls-4" d="M503.28,1120.5c.15.3,13.48,15.26,13,16-1.29,2-8-3-18-3-3.31,0-10.27,0-16.37,4.38-1.61,1.14-2,1.74-2.63,1.62-4.18-.8-.17-27.8-1-50-1.79-48.38-26.12-63.43-16-80,11.19-18.32,40.07-23.84,50-9"/><path class="cls-4" d="M494.84,1120.5c-.15.3-13.48,15.26-13,16,1.29,2,8-3,18-3,3.31,0,10.27,0,16.37,4.38,1.61,1.14,2,1.75,2.63,1.62,4.18-.8.18-27.8,1-50,1.79-48.38,26.12-63.43,16-80-11.19-18.32-40.07-23.84-50-9"/><path d="M519.78,1123.15c-4.19-2.57-8.14,12.51-19,13.34-11.92.91-17.26-16.49-22-13.34-8.32,5.55,3,62.81,5,135.06,1.9,67.53-4.83,129.16,2,131.71,3.51,1.31,6.65-14.47,15-15,7.94-.51,11.43,13.31,15,11.67,7.15-3.29-.47-61.61,0-125C516.34,1186.93,527.91,1128.14,519.78,1123.15Z"/><path d="M514.2,1354.55c-3.09-2.49-6,12.15-14,13-8.78.88-12.72-16-16.2-13-6.13,5.39,2.18,61,3.68,131.1,1.4,65.56-3.56,125.39,1.47,127.86,2.59,1.28,4.89-14,11-14.56,5.84-.49,8.41,12.92,11,11.33,5.26-3.2-.35-59.81,0-121.39C511.66,1416.47,520.18,1359.39,514.2,1354.55Z"/><text class="cls-5" transform="translate(79.52 932.6)">木<tspan class="cls-6" x="72" y="0" xml:space="preserve">        </tspan><tspan x="194.11" y="0" xml:space="preserve">火       土       金       水 </tspan></text><path d="M499.48,559.47A18.53,18.53,0,1,0,518,578,18.52,18.52,0,0,0,499.48,559.47Zm0,27.3a8.78,8.78,0,1,1,8.78-8.77A8.74,8.74,0,0,1,499.48,586.77Z"/><circle class="cls-2" cx="503.02" cy="327.5" r="12.5"/><circle cx="503.02" cy="405.5" r="12.5"/></g></g></svg>